# xmcd
#
# Track frame offsets:
#	150
#	10350
#	29775
#	54145
#	79345
#	100270
#	127945
#	151345
#	174220
#	197910
#	214240
#	229680
#	240630
#	251955
#	287880
#	305505
#	330995
#
# Disc length: 4632 seconds
#
# Revision: 1
# Processed by: cddbd v1.5.1PL0 Copyright (c) Steve Scherf et al.
# Submitted via: EasyCDDAExtractor 8.0.2.1
#
DISCID=e9121611
DTITLE=Ozzy Osbourne - Kentish and Country Club London 13-07-88
DYEAR=1988
DGENRE=Hard Rock
TTITLE0=Intro
TTITLE1=Bark At The Moon
TTITLE2=Suicide Solution
TTITLE3=Mr Crowley
TTITLE4=Demon Alcohol
TTITLE5=Shot In The Dark
TTITLE6=I Don't Know
TTITLE7=Flying High Again
TTITLE8=Bloodbath In Paradise
TTITLE9=Zakk's Solo
TTITLE10=Sweet Leaf
TTITLE11=War Pigs
TTITLE12=Tattoed Dancer
TTITLE13=Drum Solo
TTITLE14=Iron Man
TTITLE15=Crazy Train
TTITLE16=Paranoid
EXTD=
EXTT0=
EXTT1=
EXTT2=
EXTT3=
EXTT4=
EXTT5=
EXTT6=
EXTT7=
EXTT8=
EXTT9=
EXTT10=
EXTT11=
EXTT12=
EXTT13=
EXTT14=
EXTT15=
EXTT16=
PLAYORDER=
